#N canvas 122 49 450 300 10;
#X obj 125 27 inlet;
#X obj 125 266 outlet;
#X obj 125 56 - \$1;
#X obj 125 154 /;
#X obj 201 119 - \$1;
#X obj 125 212 *;
#X obj 287 151 - \$3;
#X obj 125 242 + \$3;
#X obj 201 40 loadbang;
#X obj 201 67 t b b;
#X obj 201 93 f \$2;
#X obj 287 125 f \$4;
#X connect 0 0 2 0;
#X connect 2 0 3 0;
#X connect 3 0 5 0;
#X connect 4 0 3 1;
#X connect 5 0 7 0;
#X connect 6 0 5 1;
#X connect 7 0 1 0;
#X connect 8 0 9 0;
#X connect 9 0 10 0;
#X connect 9 1 11 0;
#X connect 10 0 4 0;
#X connect 11 0 6 0;
