#N canvas 121 22 450 300 10;
#X obj -135 -3 inlet;
#X obj -135 236 outlet;
#X obj -135 26 - \$1;
#X obj -135 124 /;
#X obj -59 57 \$2;
#X obj -59 89 - \$1;
#X obj -135 182 *;
#X obj 27 89 \$4;
#X obj 26 121 - \$3;
#X obj -135 212 + \$3;
#X obj 27 67 initbang;
#X obj -59 34 loadbang;
#X connect 0 0 2 0;
#X connect 2 0 3 0;
#X connect 3 0 6 0;
#X connect 4 0 5 0;
#X connect 5 0 3 1;
#X connect 6 0 9 0;
#X connect 7 0 8 0;
#X connect 8 0 6 1;
#X connect 9 0 1 0;
#X connect 10 0 7 0;
#X connect 10 0 4 0;
#X connect 11 0 4 0;
#X connect 11 0 7 0;
