#N canvas 598 181 574 627 10;
#X obj 25 193 outlet;
#X obj 73 205 outlet;
#X obj 101 38 route \$1;
#X obj 120 214 outlet;
#X obj 104 16 r RouteTrigger;
#X obj 100 60 unpack s f f f f f f f;
#X floatatom 228 119 3 0 0 0 - - -;
#X floatatom 252 119 3 0 0 0 - - -;
#X floatatom 278 119 3 0 0 0 - - -;
#X floatatom 332 151 3 0 0 0 - - -;
#X obj 54 117 t a a;
#X text 41 117 X;
#X obj 81 140 t a a;
#X text 67 139 Y;
#X obj 134 151 t a a;
#X text 77 149 Y;
#X text 117 157 Z;
#X obj 331 128 t a b;
#X text 265 153 nbr cursor;
#X obj 137 351 translateXYZ;
#X obj 136 437 colorRGB 1 0 0 0;
#X obj 377 157 t b b;
#X msg 363 251 0;
#X obj 136 484 circle 0.1;
#X obj 361 189 delay 200;
#X obj 136 461 alpha;
#X msg 396 253 0.3;
#X obj 137 303 r GemHeadCircle;
#X obj 140 331 separator;
#X obj 163 197 a_range 0.01 1 -3 3;
#X obj 199 225 a_range 0.01 1 -3 3;
#X obj 214 247 a_range 0.01 1 -3 3;
#X connect 2 0 5 0;
#X connect 4 0 2 0;
#X connect 5 1 10 0;
#X connect 5 2 12 0;
#X connect 5 3 14 0;
#X connect 5 4 6 0;
#X connect 5 5 7 0;
#X connect 5 6 8 0;
#X connect 5 7 17 0;
#X connect 10 0 0 0;
#X connect 10 1 29 0;
#X connect 12 0 1 0;
#X connect 12 1 30 0;
#X connect 14 0 3 0;
#X connect 14 1 31 0;
#X connect 17 0 9 0;
#X connect 17 1 21 0;
#X connect 19 0 20 0;
#X connect 20 0 25 0;
#X connect 21 0 24 0;
#X connect 21 1 26 0;
#X connect 22 0 20 4;
#X connect 24 0 22 0;
#X connect 25 0 23 0;
#X connect 26 0 20 4;
#X connect 27 0 28 0;
#X connect 28 0 19 0;
#X connect 29 0 19 1;
#X connect 30 0 19 2;
#X connect 31 0 19 3;
#X coords 0 0 1 1 110 35 0;
