#N canvas 535 99 574 627 10;
#X obj 20 142 outlet;
#X obj 48 169 outlet;
#X obj 269 310 initbang;
#X obj 325 327 loadbang;
#X obj 104 37 route \$1;
#X obj 78 194 outlet;
#X obj 104 62 unpack s f f f f;
#X obj 127 125 t f f;
#X obj 150 104 t f f;
#X obj 173 82 t f f;
#X obj 104 16 r RouteCursor;
#X obj 131 275 translateXYZ;
#X obj 131 369 cube 0.1;
#X msg 279 352 draw line;
#X obj 133 326 rotateXYZ;
#X obj 178 300 * 10;
#X obj 201 300 * 10;
#X obj 224 301 * 10;
#X obj 131 247 separator;
#X obj 129 227 r GemHeadCube;
#X obj 153 147 a_range 0.01 1 -3 3;
#X obj 176 170 a_range 0.01 1 -3 3;
#X obj 200 190 a_range 0.01 1 -3 3;
#X connect 2 0 13 0;
#X connect 3 0 13 0;
#X connect 4 0 6 0;
#X connect 6 1 7 0;
#X connect 6 2 8 0;
#X connect 6 3 9 0;
#X connect 7 0 0 0;
#X connect 7 1 20 0;
#X connect 8 0 1 0;
#X connect 8 1 21 0;
#X connect 9 0 5 0;
#X connect 9 1 22 0;
#X connect 10 0 4 0;
#X connect 11 0 14 0;
#X connect 13 0 12 0;
#X connect 14 0 12 0;
#X connect 15 0 14 1;
#X connect 16 0 14 2;
#X connect 17 0 14 3;
#X connect 18 0 11 0;
#X connect 19 0 18 0;
#X connect 20 0 11 1;
#X connect 20 0 15 0;
#X connect 21 0 11 2;
#X connect 21 0 16 0;
#X connect 22 0 17 0;
#X connect 22 0 11 3;
#X coords 0 627 1 626 120 35 0;
