#N canvas 696 27 712 546 10;
#X declare -lib mrpeach;
#N canvas 53 38 1285 596 Rcursor 0;
#X obj 0 0 abs-cursor 0;
#X obj 125 0 abs-cursor 1;
#X obj 250 0 abs-cursor 2;
#X obj 375 0 abs-cursor 3;
#X obj 500 0 abs-cursor 4;
#X obj 625 0 abs-cursor 5;
#X obj 750 0 abs-cursor 6;
#X obj 875 0 abs-cursor 7;
#X obj 1000 0 abs-cursor 8;
#X obj 1125 0 abs-cursor 9;
#X obj 0 0 abs-cursor 10;
#X obj 125 0 abs-cursor 11;
#X obj 250 50 abs-cursor 12;
#X obj 375 50 abs-cursor 13;
#X obj 500 50 abs-cursor 14;
#X obj 625 50 abs-cursor 15;
#X obj 750 50 abs-cursor 16;
#X obj 875 50 abs-cursor 17;
#X obj 1000 50 abs-cursor 18;
#X obj 1125 50 abs-cursor 19;
#X obj 0 50 abs-cursor 20;
#X obj 125 50 abs-cursor 21;
#X obj 250 100 abs-cursor 22;
#X obj 375 100 abs-cursor 23;
#X obj 500 100 abs-cursor 24;
#X obj 625 100 abs-cursor 25;
#X obj 750 100 abs-cursor 26;
#X obj 875 100 abs-cursor 27;
#X obj 1000 100 abs-cursor 28;
#X obj 1125 100 abs-cursor 29;
#X obj 0 100 abs-cursor 30;
#X obj 125 100 abs-cursor 31;
#X obj 250 150 abs-cursor 32;
#X obj 375 150 abs-cursor 33;
#X obj 500 150 abs-cursor 34;
#X obj 625 150 abs-cursor 35;
#X obj 750 150 abs-cursor 36;
#X obj 875 150 abs-cursor 37;
#X obj 1000 150 abs-cursor 38;
#X obj 1125 150 abs-cursor 39;
#X obj 0 150 abs-cursor 40;
#X obj 125 150 abs-cursor 41;
#X obj 250 200 abs-cursor 42;
#X obj 375 200 abs-cursor 43;
#X obj 500 200 abs-cursor 44;
#X obj 625 200 abs-cursor 45;
#X obj 750 200 abs-cursor 46;
#X obj 875 200 abs-cursor 47;
#X obj 1000 200 abs-cursor 48;
#X obj 1125 200 abs-cursor 49;
#X restore -92 25 pd Rcursor;
#X text -58 -271 Set IanniX score speed;
#X floatatom -94 -272 5 0 0 0 - - -;
#X msg -94 -252 /iannix/speed \$1;
#X obj -77 -116 s RouteCursor;
#X obj -60 -136 s RouteCurve;
#X obj -94 -96 s RouteTrigger;
#X obj -18 -204 tgl 15 0 empty empty empty 17 7 0 10 -262144 -1 -1
0 1;
#X text -2 -205 Play / pause;
#X obj 99 -240 tgl 15 0 empty empty empty 17 7 0 10 -262144 -1 -1 0
1;
#X text 114 -241 Score played / paused;
#X msg -18 -225 set \$1;
#X floatatom 59 -157 5 0 0 0 - - -;
#X floatatom 42 -139 5 0 0 0 - - -;
#X floatatom 25 -121 5 0 0 0 - - -;
#X obj -96 -38 a-initcursor;
#X obj -94 -177 a-udp 127.0.0.1 1234 57120;
#X obj 69 -39 a-inittrig;
#N canvas 0 22 1137 239 Rtrigger 0;
#X obj 0 0 abs-trigger 2000;
#X obj 110 0 abs-trigger 2001;
#X obj 220 0 abs-trigger 2002;
#X obj 330 0 abs-trigger 2003;
#X obj 440 0 abs-trigger 2004;
#X obj 550 0 abs-trigger 2005;
#X obj 660 0 abs-trigger 2006;
#X obj 770 0 abs-trigger 2007;
#X obj 880 0 abs-trigger 2008;
#X obj 990 0 abs-trigger 2009;
#X obj 0 0 abs-trigger 2010;
#X obj 110 0 abs-trigger 2011;
#X obj 220 50 abs-trigger 2012;
#X obj 330 50 abs-trigger 2013;
#X obj 440 50 abs-trigger 2014;
#X obj 550 50 abs-trigger 2015;
#X obj 660 50 abs-trigger 2016;
#X obj 770 50 abs-trigger 2017;
#X obj 880 50 abs-trigger 2018;
#X obj 990 50 abs-trigger 2019;
#X obj 0 50 abs-trigger 2020;
#X obj 110 50 abs-trigger 2021;
#X obj 220 100 abs-trigger 2022;
#X obj 330 100 abs-trigger 2023;
#X obj 440 100 abs-trigger 2024;
#X obj 550 100 abs-trigger 2025;
#X obj 660 100 abs-trigger 2026;
#X obj 770 100 abs-trigger 2027;
#X obj 880 100 abs-trigger 2028;
#X obj 990 100 abs-trigger 2029;
#X obj 0 100 abs-trigger 2030;
#X obj 110 100 abs-trigger 2031;
#X obj 220 150 abs-trigger 2032;
#X obj 330 150 abs-trigger 2033;
#X obj 440 150 abs-trigger 2034;
#X obj 550 150 abs-trigger 2035;
#X obj 660 150 abs-trigger 2036;
#X obj 770 150 abs-trigger 2037;
#X obj 880 150 abs-trigger 2038;
#X obj 990 150 abs-trigger 2039;
#X obj 0 150 abs-trigger 2040;
#X obj 110 150 abs-trigger 2041;
#X obj 220 200 abs-trigger 2042;
#X obj 330 200 abs-trigger 2043;
#X obj 440 200 abs-trigger 2044;
#X obj 550 200 abs-trigger 2045;
#X obj 660 200 abs-trigger 2046;
#X obj 770 200 abs-trigger 2047;
#X obj 880 200 abs-trigger 2048;
#X obj 990 200 abs-trigger 2049;
#X obj 0 200 abs-trigger 2050;
#X restore 69 23 pd Rtrigger;
#X text -94 149 4/ open [pd Rcursor] or [Rtrigger] to see the abstractions
or to modify;
#X text -95 107 2/ click init tab for cursor and trigger to dump number
of elements;
#X text -93 134 3/ create object for cursor and trigger.;
#X text -91 209 created by philippe boisnard;
#X text -97 48 gem example;
#X obj 289 -93 gemwin;
#X msg 346 -110 destroy;
#X obj 282 -34 gemhead;
#X obj 282 -8 s GemHeadCircle;
#X obj 381 -31 gemhead;
#X obj 381 -8 s GemHeadCube;
#X text -95 60 this example shows how you can generate in dynamic patching
an gem-video;
#X msg 288 -132 FSAA 4 \, dimen 800 800 \, frame 30 \, create \, 1
;
#X text -95 92 1/ open a ianniX score and play it (Rosette \, Spin
\, Torus).;
#X connect 2 0 3 0;
#X connect 3 0 16 0;
#X connect 7 0 16 1;
#X connect 9 0 11 0;
#X connect 11 0 7 0;
#X connect 16 0 6 0;
#X connect 16 1 4 0;
#X connect 16 2 5 0;
#X connect 16 7 14 0;
#X connect 16 8 13 0;
#X connect 16 9 12 0;
#X connect 25 0 24 0;
#X connect 26 0 27 0;
#X connect 28 0 29 0;
#X connect 31 0 24 0;
