#N canvas 605 49 757 597 10;
#X text 102 39 Set IanniX score speed;
#X floatatom 66 38 5 0 0 0 - - -, f 5;
#X msg 66 58 /iannix/speed \$1;
#X obj 83 194 s RouteCursor;
#X obj 100 174 s RouteCurve;
#X obj 66 214 s RouteTrigger;
#X obj 142 106 tgl 15 0 empty empty empty 17 7 0 10 -262144 -1 -1 0
1;
#X text 158 105 Play / pause;
#X obj 259 70 tgl 15 0 empty empty empty 17 7 0 10 -262144 -1 -1 0
1;
#X text 274 69 Score played / paused;
#X msg 142 85 set \$1;
#X floatatom 219 153 5 0 0 0 - - -, f 5;
#X floatatom 202 171 5 0 0 0 - - -, f 5;
#X floatatom 185 189 5 0 0 0 - - -, f 5;
#X obj 66 133 a-udp 127.0.0.1 1234 57120;
#X text 66 459 4/ open [pd Rcursor] or [Rtrigger] to see the abstractions
or to modify;
#X text 65 417 2/ click init tab for cursor and trigger to dump number
of elements;
#X text 67 444 3/ create object for cursor and trigger.;
#X text 69 519 created by philippe boisnard;
#X text 63 358 gem example;
#X obj 449 217 gemwin;
#X msg 506 200 destroy;
#X obj 442 276 gemhead;
#X obj 442 302 s GemHeadCircle;
#X obj 541 279 gemhead;
#X obj 541 302 s GemHeadCube;
#X text 65 370 this example shows how you can generate in dynamic patching
an gem-video;
#X msg 448 178 FSAA 4 \, dimen 800 800 \, frame 30 \, create \, 1;
#X text 65 402 1/ open a ianniX score and play it (Rosette \, Spin
\, Torus).;
#N canvas 68 50 1285 596 \$0.Rcursor 0;
#X restore 68 335 pd \$0.Rcursor;
#N canvas 14 50 1137 239 \$0.Rtrigger 0;
#X restore 229 333 pd \$0.Rtrigger;
#X obj 64 272 a-initcursor \$0;
#X obj 229 271 a-inittrig \$0;
#X connect 1 0 2 0;
#X connect 2 0 14 0;
#X connect 6 0 14 1;
#X connect 8 0 10 0;
#X connect 10 0 6 0;
#X connect 14 0 5 0;
#X connect 14 1 3 0;
#X connect 14 2 4 0;
#X connect 14 7 13 0;
#X connect 14 8 12 0;
#X connect 14 9 11 0;
#X connect 21 0 20 0;
#X connect 22 0 23 0;
#X connect 24 0 25 0;
#X connect 27 0 20 0;
