#N canvas 938 269 464 307 10;
#N canvas 174 133 696 372 subpatches 0;
#X obj -171 -55 inlet;
#X obj -171 -34 route 0 1 2 3 4 5 6 7 8 9;
#X obj -11 -34 route 10 11 12 13 14 15 16 17 18 19;
#X obj 209 -34 route 20 21 22 23 24 25 26 27 28 29;
#X obj -168 116 route 30 31 32 33 34 35 36 37 38 39;
#X obj 52 116 route 40 41 42 43 44 45 46 47 48 49;
#X obj 341 76 subpatch;
#X obj 272 116 route 50 51 52 53 54 55 56 57 58 59;
#X obj 106 66 subpatch;
#X obj -171 -14 subpatch;
#X obj -157 -4 subpatch;
#X obj -142 6 subpatch;
#X obj -127 16 subpatch;
#X obj -113 26 subpatch;
#X obj -98 36 subpatch;
#X obj -83 46 subpatch;
#X obj -69 56 subpatch;
#X obj -54 66 subpatch;
#X obj -39 76 subpatch;
#X obj -11 -14 subpatch;
#X obj 3 -4 subpatch;
#X obj 18 6 subpatch;
#X obj 33 16 subpatch;
#X obj 47 26 subpatch;
#X obj 62 36 subpatch;
#X obj 77 46 subpatch;
#X obj 91 56 subpatch;
#X obj 121 76 subpatch;
#X obj 209 -14 subpatch;
#X obj 223 -4 subpatch;
#X obj 238 6 subpatch;
#X obj 253 16 subpatch;
#X obj 267 26 subpatch;
#X obj 282 36 subpatch;
#X obj 297 46 subpatch;
#X obj 311 56 subpatch;
#X obj 326 66 subpatch;
#X obj -168 136 subpatch;
#X obj -154 146 subpatch;
#X obj -139 156 subpatch;
#X obj -124 166 subpatch;
#X obj -110 176 subpatch;
#X obj -95 186 subpatch;
#X obj -80 196 subpatch;
#X obj -66 206 subpatch;
#X obj -51 216 subpatch;
#X obj -36 226 subpatch;
#X obj 52 136 subpatch;
#X obj 66 146 subpatch;
#X obj 81 156 subpatch;
#X obj 96 166 subpatch;
#X obj 110 176 subpatch;
#X obj 125 186 subpatch;
#X obj 140 196 subpatch;
#X obj 154 206 subpatch;
#X obj 169 216 subpatch;
#X obj 184 226 subpatch;
#X obj 272 136 subpatch;
#X obj 286 146 subpatch;
#X obj 301 156 subpatch;
#X obj 316 166 subpatch;
#X obj 330 176 subpatch;
#X obj 345 186 subpatch;
#X obj 360 196 subpatch;
#X obj 374 206 subpatch;
#X obj 389 216 subpatch;
#X obj 404 226 subpatch;
#X connect 0 0 1 0;
#X connect 1 0 9 0;
#X connect 1 1 10 0;
#X connect 1 2 11 0;
#X connect 1 3 12 0;
#X connect 1 4 13 0;
#X connect 1 5 14 0;
#X connect 1 6 15 0;
#X connect 1 7 16 0;
#X connect 1 8 17 0;
#X connect 1 9 18 0;
#X connect 1 10 2 0;
#X connect 2 0 19 0;
#X connect 2 1 20 0;
#X connect 2 2 21 0;
#X connect 2 3 22 0;
#X connect 2 4 23 0;
#X connect 2 5 24 0;
#X connect 2 6 25 0;
#X connect 2 7 26 0;
#X connect 2 8 8 0;
#X connect 2 9 27 0;
#X connect 2 10 3 0;
#X connect 3 0 28 0;
#X connect 3 1 29 0;
#X connect 3 2 30 0;
#X connect 3 3 31 0;
#X connect 3 4 32 0;
#X connect 3 5 33 0;
#X connect 3 6 34 0;
#X connect 3 7 35 0;
#X connect 3 8 36 0;
#X connect 3 9 6 0;
#X connect 3 10 4 0;
#X connect 4 0 37 0;
#X connect 4 1 38 0;
#X connect 4 2 39 0;
#X connect 4 3 40 0;
#X connect 4 4 41 0;
#X connect 4 5 42 0;
#X connect 4 6 43 0;
#X connect 4 7 44 0;
#X connect 4 8 45 0;
#X connect 4 9 46 0;
#X connect 4 10 5 0;
#X connect 5 0 47 0;
#X connect 5 1 48 0;
#X connect 5 2 49 0;
#X connect 5 3 50 0;
#X connect 5 4 51 0;
#X connect 5 5 52 0;
#X connect 5 6 53 0;
#X connect 5 7 54 0;
#X connect 5 8 55 0;
#X connect 5 9 56 0;
#X connect 5 10 7 0;
#X connect 7 0 57 0;
#X connect 7 1 58 0;
#X connect 7 2 59 0;
#X connect 7 3 60 0;
#X connect 7 4 61 0;
#X connect 7 5 62 0;
#X connect 7 6 63 0;
#X connect 7 7 64 0;
#X connect 7 8 65 0;
#X connect 7 9 66 0;
#X restore 5 47 pd subpatches;
#X obj 235 107 s reset;
#X obj 235 53 loadbang;
#X obj 235 74 bng 30 250 50 0 empty empty empty 17 7 0 10 -262144 -1
-1;
#X obj 5 27 OSCroute /cursor;
#X obj 235 159 gemwin;
#X msg 360 138 destroy \, reset;
#X msg 235 138 create \, 1 \, frame 25;
#X msg 235 240 connect 127.0.0.1 1234;
#X obj 235 260 sendOSC;
#X obj 244 200 hsl 128 15 0 1 0 0 empty empty empty -2 -8 0 10 -262144
-1 -1 0 1;
#X msg 241 219 send /iannix/speed \$1;
#X obj 5 7 dumpOSC 57120;
#X obj 109 27 OSCroute /transport;
#X obj 109 47 route play;
#X connect 2 0 3 0;
#X connect 3 0 1 0;
#X connect 3 0 7 0;
#X connect 3 0 8 0;
#X connect 4 0 0 0;
#X connect 6 0 5 0;
#X connect 7 0 5 0;
#X connect 8 0 9 0;
#X connect 10 0 11 0;
#X connect 11 0 9 0;
#X connect 12 0 4 0;
#X connect 12 0 13 0;
#X connect 13 0 14 0;
#X connect 14 0 3 0;
