#N canvas 245 49 960 669 10;
#X obj 317 83 inlet;
#X obj 447 83 inlet;
#X msg 447 132 /iannix/stop;
#X obj 447 107 route 0;
#X msg 535 132 /iannix/play \$1;
#X obj 647 83 inlet;
#X obj 211 75 loadbang;
#X obj 141 121 pack s f;
#X obj 211 100 f \$2;
#X obj 141 100 symbol \$1;
#X msg 141 144 connect \$1 \$2;
#X obj 307 512 outlet;
#X obj 366 512 outlet;
#X obj 425 512 outlet;
#X obj 484 445 route play stop fastrewind;
#X msg 484 465 1;
#X msg 535 465 0;
#X obj 586 490 bng 15 250 50 0 empty empty empty 17 7 0 10 -262144
-1 -1;
#X obj 507 491 tgl 15 0 empty empty empty 17 7 0 10 -262144 -1 -1 0
1;
#X obj 507 512 outlet;
#X obj 586 512 outlet;
#X obj 735 492 outlet;
#X obj 777 492 outlet;
#X obj 819 492 outlet;
#X msg 647 132 /iannix/fastrewind;
#X msg 484 424 \$1;
#X obj 636 512 outlet;
#X obj 685 492 outlet;
#X obj 484 403 unpack s f s f f f;
#X obj 488 298 netsend -u -b;
#X obj 488 256 list prepend send;
#X obj 488 277 list trim;
#X obj 307 305 netreceive -u -b \$3;
#X obj 307 327 oscparse;
#X obj 307 379 route trigger cursor curve transport;
#X obj 448 160 route send;
#X obj 448 204 list split 1;
#X obj 566 207 symbol;
#X obj 488 229 oscformat;
#X msg 566 229 set \$1;
#X obj 448 182 t a a;
#X obj 307 353 list trim;
#X connect 0 0 35 0;
#X connect 1 0 3 0;
#X connect 2 0 35 0;
#X connect 3 0 2 0;
#X connect 3 1 4 0;
#X connect 4 0 35 0;
#X connect 5 0 24 0;
#X connect 6 0 8 0;
#X connect 6 0 9 0;
#X connect 7 0 10 0;
#X connect 8 0 7 1;
#X connect 9 0 7 0;
#X connect 10 0 29 0;
#X connect 14 0 15 0;
#X connect 14 1 16 0;
#X connect 14 2 17 0;
#X connect 15 0 18 0;
#X connect 16 0 18 0;
#X connect 17 0 20 0;
#X connect 18 0 19 0;
#X connect 24 0 35 0;
#X connect 25 0 14 0;
#X connect 28 0 25 0;
#X connect 28 1 26 0;
#X connect 28 2 27 0;
#X connect 28 3 21 0;
#X connect 28 4 22 0;
#X connect 28 5 23 0;
#X connect 30 0 31 0;
#X connect 31 0 29 0;
#X connect 32 0 33 0;
#X connect 33 0 41 0;
#X connect 34 0 11 0;
#X connect 34 1 12 0;
#X connect 34 2 13 0;
#X connect 34 3 28 0;
#X connect 35 0 40 0;
#X connect 35 1 40 0;
#X connect 36 1 38 0;
#X connect 37 0 39 0;
#X connect 38 0 30 0;
#X connect 39 0 38 0;
#X connect 40 0 36 0;
#X connect 40 1 37 0;
#X connect 41 0 34 0;
