#N canvas 535 99 574 627 10;
#X obj 20 142 outlet;
#X obj 48 169 outlet;
#X obj 263 5 initbang;
#X obj 319 22 loadbang;
#X obj 104 37 route \$1;
#X obj 78 194 outlet;
#X obj 217 433 *~ 2;
#X obj 220 489 -~;
#X obj 221 556 vcf~;
#X obj 325 457 line~;
#X obj 325 433 pack 0 100;
#X obj 224 647 throw~ dac1;
#X obj 197 329 * 500;
#X obj 322 410 random 10;
#X obj 221 527 +~;
#X obj 257 465 random 3;
#X obj 164 517 * -1;
#X obj 164 537 + 1;
#X obj 224 601 *~;
#X obj 259 622 throw~ dac2;
#X obj 260 602 *~;
#X obj 150 346 * 900;
#X obj 177 283 r varPhas;
#X obj 104 62 unpack s f f f f;
#X obj 127 125 t f f;
#X obj 150 104 t f f;
#X obj 173 82 t f f;
#X obj 104 16 r RouteCursor;
#X obj 151 402 osc~;
#X obj 266 389 phasor~;
#X obj 209 388 osc~;
#X obj 256 331 * 2;
#X connect 2 0 13 0;
#X connect 2 0 15 0;
#X connect 3 0 13 0;
#X connect 3 0 15 0;
#X connect 4 0 23 0;
#X connect 6 0 7 0;
#X connect 7 0 14 0;
#X connect 8 0 18 0;
#X connect 8 0 20 0;
#X connect 9 0 8 1;
#X connect 10 0 9 0;
#X connect 12 0 30 0;
#X connect 13 0 10 0;
#X connect 14 0 8 0;
#X connect 15 0 8 2;
#X connect 16 0 17 0;
#X connect 17 0 18 1;
#X connect 18 0 11 0;
#X connect 20 0 19 0;
#X connect 21 0 28 0;
#X connect 22 0 21 1;
#X connect 23 1 24 0;
#X connect 23 2 25 0;
#X connect 23 3 26 0;
#X connect 24 0 0 0;
#X connect 24 1 12 0;
#X connect 24 1 16 0;
#X connect 24 1 20 1;
#X connect 25 0 1 0;
#X connect 25 1 21 0;
#X connect 26 0 5 0;
#X connect 26 1 31 0;
#X connect 27 0 4 0;
#X connect 28 0 14 1;
#X connect 29 0 7 1;
#X connect 30 0 6 0;
#X connect 31 0 29 0;
#X coords 0 627 1 626 120 35 0;
