#N canvas 598 181 574 627 10;
#X obj 25 193 outlet;
#X obj 73 205 outlet;
#X obj 101 38 route \$1;
#X obj 120 214 outlet;
#X obj 104 16 r RouteTrigger;
#X obj 280 361 throw~ dac1;
#X obj 366 363 throw~ dac2;
#X obj 100 60 unpack s f f f f f f f;
#X floatatom 228 119 3 0 0 0 - - -;
#X floatatom 252 119 3 0 0 0 - - -;
#X floatatom 278 119 3 0 0 0 - - -;
#X floatatom 332 151 3 0 0 0 - - -;
#X obj 358 197 ead~;
#X obj 338 263 *~;
#X obj 368 166 * 100;
#X obj 409 164 * 100;
#X obj 292 199 osc~ 1200;
#X obj 54 117 t a a;
#X text 41 117 X;
#X obj 81 140 t a a;
#X text 67 139 Y;
#X obj 134 151 t a a;
#X text 77 149 Y;
#X text 117 157 Z;
#X obj 331 128 t a b;
#X text 265 153 nbr cursor;
#X connect 2 0 7 0;
#X connect 4 0 2 0;
#X connect 7 1 17 0;
#X connect 7 2 19 0;
#X connect 7 3 21 0;
#X connect 7 4 8 0;
#X connect 7 5 9 0;
#X connect 7 6 10 0;
#X connect 7 7 24 0;
#X connect 12 0 13 1;
#X connect 13 0 6 0;
#X connect 13 0 5 0;
#X connect 14 0 12 1;
#X connect 15 0 12 2;
#X connect 16 0 13 0;
#X connect 17 0 0 0;
#X connect 17 1 14 0;
#X connect 19 0 1 0;
#X connect 19 1 15 0;
#X connect 21 0 3 0;
#X connect 24 0 11 0;
#X connect 24 1 12 0;
#X coords 0 0 1 1 110 35 0;
