#N canvas 599 137 574 627 10;
#X obj 25 193 outlet;
#X obj 73 205 outlet;
#X obj 101 38 route \$1;
#X obj 120 214 outlet;
#X obj 104 16 r RouteTrigger;
#X obj 280 361 throw~ dac1;
#X obj 366 363 throw~ dac2;
#X obj 100 60 unpack s f f f f f f f;
#X floatatom 228 119 3 0 0 0 - - -, f 3;
#X floatatom 252 119 3 0 0 0 - - -, f 3;
#X floatatom 278 119 3 0 0 0 - - -, f 3;
#X floatatom 332 151 3 0 0 0 - - -, f 3;
#X obj 338 263 *~;
#X obj 368 166 * 100;
#X obj 409 164 * 100;
#X obj 292 199 osc~ 1200;
#X obj 54 117 t a a;
#X text 41 117 X;
#X obj 81 140 t a a;
#X text 67 139 Y;
#X obj 134 151 t a a;
#X text 77 149 Y;
#X text 117 157 Z;
#X obj 331 128 t a b;
#X text 265 153 nbr cursor;
#X msg 369 213 0 \, \$1 \$2 \, 0 \$3 \$2;
#X obj 369 235 vline~;
#X obj 369 191 pack 1 0 0;
#X connect 2 0 7 0;
#X connect 4 0 2 0;
#X connect 7 1 16 0;
#X connect 7 2 18 0;
#X connect 7 3 20 0;
#X connect 7 4 8 0;
#X connect 7 5 9 0;
#X connect 7 6 10 0;
#X connect 7 7 23 0;
#X connect 12 0 6 0;
#X connect 12 0 5 0;
#X connect 13 0 27 1;
#X connect 14 0 27 2;
#X connect 15 0 12 0;
#X connect 16 0 0 0;
#X connect 16 1 13 0;
#X connect 18 0 1 0;
#X connect 18 1 14 0;
#X connect 20 0 3 0;
#X connect 23 0 11 0;
#X connect 23 1 27 0;
#X connect 25 0 26 0;
#X connect 26 0 12 1;
#X connect 27 0 25 0;
#X coords 0 0 1 1 110 35 0;
