#N canvas 728 22 566 489 10;
#X declare -lib mrpeach;
#N canvas 53 38 1285 596 Rcursor 0;
#X obj 0 50 abs-cursor 0;
#X obj 125 50 abs-cursor 1;
#X obj 250 0 abs-cursor 2;
#X obj 375 0 abs-cursor 3;
#X obj 500 0 abs-cursor 4;
#X obj 625 0 abs-cursor 5;
#X restore -92 25 pd Rcursor;
#X obj 249 -21 dac~;
#X obj 246 -139 catch~ dac1;
#X obj 248 -50 vols~;
#X floatatom 330 -65 5 0 0 0 - - -;
#X obj 261 -113 catch~ dac2;
#X obj 373 -59 s varPhas;
#X floatatom 374 -83 5 0 0 0 - - -;
#X text -95 60 this example shows how you can generate in dynamic patching
an additive synthese;
#X text -58 -271 Set IanniX score speed;
#X floatatom -94 -272 5 0 0 0 - - -;
#X msg -94 -252 /iannix/speed \$1;
#X obj -77 -116 s RouteCursor;
#X obj -60 -136 s RouteCurve;
#X obj -94 -96 s RouteTrigger;
#X obj -18 -204 tgl 15 0 empty empty empty 17 7 0 10 -262144 -1 -1
0 1;
#X text -2 -205 Play / pause;
#X obj 99 -240 tgl 15 0 empty empty empty 17 7 0 10 -262144 -1 -1 0
1;
#X text 114 -241 Score played / paused;
#X msg -18 -225 set \$1;
#X floatatom 59 -157 5 0 0 0 - - -;
#X floatatom 42 -139 5 0 0 0 - - -;
#X floatatom 25 -121 5 0 0 0 - - -;
#X obj -96 -38 a-initcursor;
#X obj -94 -177 a-udp 127.0.0.1 1234 57120;
#X text -97 48 sound example;
#X obj 69 -39 a-inittrig;
#N canvas 0 22 1137 239 Rtrigger 0;
#X obj 0 250 abs-trigger 2000;
#X obj 110 250 abs-trigger 2001;
#X obj 220 0 abs-trigger 2002;
#X obj 330 0 abs-trigger 2003;
#X obj 440 0 abs-trigger 2004;
#X obj 550 0 abs-trigger 2005;
#X obj 660 0 abs-trigger 2006;
#X obj 770 0 abs-trigger 2007;
#X obj 880 0 abs-trigger 2008;
#X obj 990 0 abs-trigger 2009;
#X obj 0 0 abs-trigger 2010;
#X obj 110 0 abs-trigger 2011;
#X obj 220 50 abs-trigger 2012;
#X obj 330 50 abs-trigger 2013;
#X obj 440 50 abs-trigger 2014;
#X obj 550 50 abs-trigger 2015;
#X obj 660 50 abs-trigger 2016;
#X obj 770 50 abs-trigger 2017;
#X obj 880 50 abs-trigger 2018;
#X obj 990 50 abs-trigger 2019;
#X obj 0 50 abs-trigger 2020;
#X obj 110 50 abs-trigger 2021;
#X obj 220 100 abs-trigger 2022;
#X obj 330 100 abs-trigger 2023;
#X obj 440 100 abs-trigger 2024;
#X obj 550 100 abs-trigger 2025;
#X obj 660 100 abs-trigger 2026;
#X obj 770 100 abs-trigger 2027;
#X obj 880 100 abs-trigger 2028;
#X obj 990 100 abs-trigger 2029;
#X obj 0 100 abs-trigger 2030;
#X obj 110 100 abs-trigger 2031;
#X obj 220 150 abs-trigger 2032;
#X obj 330 150 abs-trigger 2033;
#X obj 440 150 abs-trigger 2034;
#X obj 550 150 abs-trigger 2035;
#X obj 660 150 abs-trigger 2036;
#X obj 770 150 abs-trigger 2037;
#X obj 880 150 abs-trigger 2038;
#X obj 990 150 abs-trigger 2039;
#X obj 0 150 abs-trigger 2040;
#X obj 110 150 abs-trigger 2041;
#X obj 220 200 abs-trigger 2042;
#X obj 330 200 abs-trigger 2043;
#X obj 440 200 abs-trigger 2044;
#X obj 550 200 abs-trigger 2045;
#X obj 660 200 abs-trigger 2046;
#X obj 770 200 abs-trigger 2047;
#X obj 880 200 abs-trigger 2048;
#X obj 990 200 abs-trigger 2049;
#X obj 0 200 abs-trigger 2050;
#X obj 110 200 abs-trigger 2051;
#X obj 220 250 abs-trigger 2052;
#X obj 330 250 abs-trigger 2053;
#X obj 440 250 abs-trigger 2054;
#X obj 550 250 abs-trigger 2055;
#X obj 660 250 abs-trigger 2056;
#X restore 69 23 pd Rtrigger;
#X text -94 149 4/ open [pd Rcursor] or [Rtrigger] to see the abstractions
or to modify;
#X text -95 92 1/ open a ianniX score and play it.;
#X text -95 107 2/ click init tab for cursor and trigger to dump number
of elements;
#X text -93 134 3/ create object for cursor and trigger.;
#X text -91 209 created by philippe boisnard;
#X connect 2 0 3 0;
#X connect 3 0 1 0;
#X connect 3 1 1 1;
#X connect 4 0 3 2;
#X connect 5 0 3 1;
#X connect 7 0 6 0;
#X connect 10 0 11 0;
#X connect 11 0 24 0;
#X connect 15 0 24 1;
#X connect 17 0 19 0;
#X connect 19 0 15 0;
#X connect 24 0 14 0;
#X connect 24 1 12 0;
#X connect 24 2 13 0;
#X connect 24 7 22 0;
#X connect 24 8 21 0;
#X connect 24 9 20 0;
