#N canvas 732 49 625 541 10;
#X obj 379 259 dac~;
#X obj 377 141 catch~ dac1;
#X obj 409 167 catch~ dac2;
#X obj 503 171 s varPhas;
#X floatatom 504 147 5 0 0 0 - - -, f 5;
#X text 35 340 this example shows how you can generate in dynamic patching
an additive synthese;
#X text 72 9 Set IanniX score speed;
#X floatatom 36 8 5 0 0 0 - - -, f 5;
#X msg 36 28 /iannix/speed \$1;
#X obj 53 164 s RouteCursor;
#X obj 70 144 s RouteCurve;
#X obj 36 184 s RouteTrigger;
#X obj 112 76 tgl 15 0 empty empty empty 17 7 0 10 -262144 -1 -1 0
1;
#X text 128 75 Play / pause;
#X obj 229 40 tgl 15 0 empty empty empty 17 7 0 10 -262144 -1 -1 0
1;
#X text 244 39 Score played / paused;
#X msg 112 55 set \$1;
#X floatatom 189 123 5 0 0 0 - - -, f 5;
#X floatatom 172 141 5 0 0 0 - - -, f 5;
#X floatatom 155 159 5 0 0 0 - - -, f 5;
#X obj 36 103 a-udp 127.0.0.1 1234 57120;
#X text 33 328 sound example;
#X text 36 429 4/ open [pd Rcursor] or [Rtrigger] to see the abstractions
or to modify;
#X text 35 372 1/ open a ianniX score and play it.;
#X text 35 387 2/ click init tab for cursor and trigger to dump number
of elements;
#X text 37 414 3/ create object for cursor and trigger.;
#X text 39 489 created by philippe boisnard;
#X obj 470 204 hsl 128 15 0 127 0 0 empty empty empty -2 -8 0 10 -262144
-1 -1 4400 1;
#X obj 467 224 dbtorms;
#X obj 467 246 pack 0 50;
#X obj 467 268 line~;
#X obj 378 230 *~;
#X obj 408 230 *~;
#X obj 240 83 bng 15 250 50 0 empty empty empty 17 7 0 10 -262144 -1
-1;
#N canvas 68 49 1285 596 \$0.Rcursor 0;
#X restore 38 305 pd \$0.Rcursor;
#N canvas 14 49 1137 239 \$0.Rtrigger 0;
#X restore 199 303 pd \$0.Rtrigger;
#X obj 34 242 a-initcursor \$0;
#X obj 199 241 a-inittrig \$0;
#X connect 1 0 31 0;
#X connect 2 0 32 0;
#X connect 4 0 3 0;
#X connect 7 0 8 0;
#X connect 8 0 20 0;
#X connect 12 0 20 1;
#X connect 14 0 16 0;
#X connect 16 0 12 0;
#X connect 20 0 11 0;
#X connect 20 1 9 0;
#X connect 20 2 10 0;
#X connect 20 3 14 0;
#X connect 20 7 19 0;
#X connect 20 8 18 0;
#X connect 20 9 17 0;
#X connect 27 0 28 0;
#X connect 28 0 29 0;
#X connect 29 0 30 0;
#X connect 30 0 31 1;
#X connect 30 0 32 1;
#X connect 31 0 0 0;
#X connect 32 0 0 1;
#X connect 33 0 20 2;
