#N canvas 32 157 539 470 10;
#X obj 6 6 inlet;
#X obj 18 402 outlet;
#X obj 35 422 outlet;
#X obj 52 341 outlet;
#X obj 69 361 outlet;
#X obj 86 381 outlet;
#X obj 103 341 outlet;
#X obj 120 361 outlet;
#X obj 137 381 outlet;
#X obj 154 402 outlet;
#X obj 171 422 outlet;
#X obj 221 422 outlet;
#X obj 108 85 route 0;
#X obj 108 62 f \$1;
#X obj 207 5 loadbang;
#X msg 108 107 2;
#X msg 147 107 1;
#X obj 125 194 route \$1;
#X obj 108 6 inlet;
#X msg 125 216 1;
#X msg 170 217 0;
#X obj 244 255 && 1;
#X obj 244 275 sel 1;
#X obj 18 292 l;
#X obj 6 65 t l l;
#X obj 18 318 unpack f s f f f f f f f s;
#X obj 208 82 unpack f s;
#X text 253 311 TODO : filter by Group ID;
#X msg 345 216 1;
#X msg 390 217 0;
#X obj 328 85 route 0;
#X msg 328 107 2;
#X msg 367 107 1;
#X obj 328 6 inlet;
#X obj 328 62 f \$2;
#X obj 345 194 route \$2;
#X obj 207 27 t b b;
#X obj 328 28 t f f;
#X obj 108 28 t f f;
#N canvas 487 201 450 300 gateF 0;
#X obj 92 40 inlet;
#X obj 204 40 inlet;
#X obj 59 159 spigot;
#X obj 92 104 sel 2;
#X msg 92 126 0;
#X obj 264 115 sel 1;
#X msg 264 137 0;
#X msg 291 137 1;
#X obj 231 159 spigot;
#X obj 92 62 t f f;
#X obj 204 62 t f f;
#X obj 59 181 outlet;
#X obj 231 181 outlet;
#X connect 0 0 9 0;
#X connect 1 0 10 0;
#X connect 2 0 11 0;
#X connect 3 0 4 0;
#X connect 3 1 2 1;
#X connect 4 0 2 1;
#X connect 5 0 6 0;
#X connect 5 1 7 0;
#X connect 6 0 8 1;
#X connect 7 0 8 1;
#X connect 8 0 12 0;
#X connect 9 0 3 0;
#X connect 9 1 5 0;
#X connect 10 0 2 0;
#X connect 10 1 8 0;
#X restore 125 172 pd gateF;
#N canvas 487 201 450 300 gateS 0;
#X obj 92 40 inlet;
#X obj 204 40 inlet;
#X obj 59 159 spigot;
#X obj 92 104 sel 2;
#X msg 92 126 0;
#X obj 264 115 sel 1;
#X msg 264 137 0;
#X msg 291 137 1;
#X obj 231 159 spigot;
#X obj 92 62 t f f;
#X obj 59 181 outlet;
#X obj 231 181 outlet;
#X obj 204 62 t s s;
#X connect 0 0 9 0;
#X connect 1 0 12 0;
#X connect 2 0 10 0;
#X connect 3 0 4 0;
#X connect 3 1 2 1;
#X connect 4 0 2 1;
#X connect 5 0 6 0;
#X connect 5 1 7 0;
#X connect 6 0 8 1;
#X connect 7 0 8 1;
#X connect 8 0 11 0;
#X connect 9 0 3 0;
#X connect 9 1 5 0;
#X connect 12 0 2 0;
#X connect 12 1 8 0;
#X restore 345 172 pd gateS;
#X connect 0 0 24 0;
#X connect 12 0 15 0;
#X connect 12 1 16 0;
#X connect 13 0 12 0;
#X connect 14 0 36 0;
#X connect 15 0 39 0;
#X connect 16 0 39 0;
#X connect 17 0 19 0;
#X connect 17 1 20 0;
#X connect 18 0 38 0;
#X connect 19 0 21 0;
#X connect 20 0 21 0;
#X connect 21 0 22 0;
#X connect 22 0 23 0;
#X connect 23 0 11 0;
#X connect 23 0 25 0;
#X connect 24 0 26 0;
#X connect 24 1 23 1;
#X connect 25 0 1 0;
#X connect 25 1 2 0;
#X connect 25 2 3 0;
#X connect 25 3 4 0;
#X connect 25 4 5 0;
#X connect 25 5 6 0;
#X connect 25 6 7 0;
#X connect 25 7 8 0;
#X connect 25 8 9 0;
#X connect 25 9 10 0;
#X connect 26 0 39 1;
#X connect 26 1 40 1;
#X connect 28 0 21 1;
#X connect 29 0 21 1;
#X connect 30 0 31 0;
#X connect 30 1 32 0;
#X connect 31 0 40 0;
#X connect 32 0 40 0;
#X connect 33 0 37 0;
#X connect 34 0 30 0;
#X connect 35 0 28 0;
#X connect 35 1 29 0;
#X connect 36 0 13 0;
#X connect 36 1 34 0;
#X connect 37 0 34 0;
#X connect 37 1 35 1;
#X connect 38 0 13 0;
#X connect 38 1 17 1;
#X connect 39 0 17 0;
#X connect 39 1 19 0;
#X connect 40 0 35 0;
#X connect 40 1 28 0;
