#N canvas 652 81 592 559 10;
#X obj 54 116 inlet;
#X obj 184 116 inlet;
#X msg 184 165 /iannix/stop;
#X obj 184 140 route 0;
#X msg 272 165 /iannix/play \$1;
#X obj 384 116 inlet;
#X obj 53 322 route /trigger /cursor /curve /transport;
#X obj 54 198 packOSC;
#X obj 68 8 loadbang;
#X obj 53 300 unpackOSC;
#X obj 54 241 udpsend;
#X obj 53 278 udpreceive;
#X obj 54 219 prepend send;
#X obj 118 33 f \$3;
#X msg 118 76 port \$1;
#X obj 8 54 pack s f;
#X obj 68 33 f \$2;
#X obj 8 33 symbol \$1;
#X msg 8 77 connect \$1 \$2;
#X obj 53 455 outlet;
#X obj 112 455 outlet;
#X obj 171 455 outlet;
#X obj 230 388 route play stop fastrewind;
#X msg 230 408 1;
#X msg 281 408 0;
#X obj 332 433 bng 15 250 50 0 empty empty empty 17 7 0 10 -262144
-1 -1;
#X obj 253 434 tgl 15 0 empty empty empty 17 7 0 10 -262144 -1 -1 0
1;
#X obj 253 455 outlet;
#X obj 332 455 outlet;
#X obj 482 455 outlet;
#X obj 524 455 outlet;
#X obj 566 455 outlet;
#X msg 384 165 /iannix/fastrewind;
#X msg 230 367 \$1;
#X obj 382 455 outlet;
#X obj 432 455 outlet;
#X obj 230 346 unpack s f s f f f;
#X connect 0 0 7 0;
#X connect 1 0 3 0;
#X connect 2 0 7 0;
#X connect 3 0 2 0;
#X connect 3 1 4 0;
#X connect 4 0 7 0;
#X connect 5 0 32 0;
#X connect 6 0 19 0;
#X connect 6 1 20 0;
#X connect 6 2 21 0;
#X connect 6 3 36 0;
#X connect 7 0 12 0;
#X connect 8 0 13 0;
#X connect 8 0 16 0;
#X connect 8 0 17 0;
#X connect 9 0 6 0;
#X connect 11 0 9 0;
#X connect 12 0 10 0;
#X connect 13 0 14 0;
#X connect 14 0 11 0;
#X connect 15 0 18 0;
#X connect 16 0 15 1;
#X connect 17 0 15 0;
#X connect 18 0 10 0;
#X connect 22 0 23 0;
#X connect 22 1 24 0;
#X connect 22 2 25 0;
#X connect 23 0 26 0;
#X connect 24 0 26 0;
#X connect 25 0 28 0;
#X connect 26 0 27 0;
#X connect 32 0 7 0;
#X connect 33 0 22 0;
#X connect 36 0 33 0;
#X connect 36 1 34 0;
#X connect 36 2 35 0;
#X connect 36 3 29 0;
#X connect 36 4 30 0;
#X connect 36 5 31 0;
