#N canvas 646 74 601 470 10;
#X obj 56 105 inlet;
#X obj 88 381 outlet;
#X obj 105 401 outlet;
#X obj 122 320 outlet;
#X obj 139 340 outlet;
#X obj 156 360 outlet;
#X obj 173 320 outlet;
#X obj 190 340 outlet;
#X obj 207 360 outlet;
#X obj 224 381 outlet;
#X obj 241 401 outlet;
#X obj 436 361 outlet;
#X obj 56 224 t l l;
#X obj 88 297 unpack f s f f f f f f f s;
#X obj 56 178 route \$1;
#X obj 56 200 list prepend \$1;
#N canvas 5 50 450 300 have-arg 0;
#X obj 55 40 inlet;
#X obj 55 248 outlet;
#X obj 55 135 symbol \$1-;
#X obj 55 62 t b b;
#X msg 110 35 bang;
#X obj 55 157 select symbol;
#X obj 143 136 makefilename $%d-;
#X msg 143 115 1;
#X msg 55 179 0;
#X msg 143 180 1;
#X obj 55 201 t f;
#X connect 0 0 3 0;
#X connect 2 0 5 0;
#X connect 3 0 2 0;
#X connect 3 1 7 0;
#X connect 4 0 3 0;
#X connect 5 0 8 0;
#X connect 5 1 9 0;
#X connect 6 0 5 1;
#X connect 7 0 6 0;
#X connect 8 0 10 0;
#X connect 9 0 10 0;
#X connect 10 0 1 0;
#X restore 138 81 pd have-arg;
#X obj 56 127 t a a;
#X obj 56 149 spigot 0;
#X obj 126 149 spigot 1;
#X obj 138 103 t f f;
#X obj 179 126 == 0;
#X obj 138 58 loadbang;
#X msg 208 60 bang;
#X obj 404 64 inlet ID;
#X msg 404 130 1;
#X obj 404 152 t f;
#X obj 358 108 t b;
#X msg 358 130 0;
#X text 44 11 [iannix_object] filter IanniX data;
#X obj 404 86 route bang;
#X obj 404 108 t b a;
#X obj 436 131 list split 1;
#X obj 126 178 t a a;
#X connect 0 0 17 0;
#X connect 12 0 11 0;
#X connect 12 1 13 0;
#X connect 13 0 1 0;
#X connect 13 1 2 0;
#X connect 13 2 3 0;
#X connect 13 3 4 0;
#X connect 13 4 5 0;
#X connect 13 5 6 0;
#X connect 13 6 7 0;
#X connect 13 7 8 0;
#X connect 13 8 9 0;
#X connect 13 9 10 0;
#X connect 14 0 15 0;
#X connect 15 0 12 0;
#X connect 16 0 20 0;
#X connect 17 0 18 0;
#X connect 17 1 19 0;
#X connect 18 0 14 0;
#X connect 19 0 12 0;
#X connect 20 0 18 1;
#X connect 20 1 21 0;
#X connect 21 0 19 1;
#X connect 22 0 16 0;
#X connect 23 0 16 0;
#X connect 24 0 30 0;
#X connect 25 0 26 0;
#X connect 26 0 20 0;
#X connect 27 0 28 0;
#X connect 28 0 26 0;
#X connect 30 0 27 0;
#X connect 31 0 25 0;
#X connect 31 1 32 0;
#X connect 32 0 33 0;
#X connect 33 0 14 1;
#X connect 33 1 15 1;
