#N canvas 659 53 660 477 10;
#X obj 95 14 inlet;
#X obj 188 14 inlet;
#X obj 188 38 route 0;
#X obj 468 14 inlet;
#X obj 19 6 loadbang;
#X obj 19 82 pack s f;
#X obj 89 61 f \$2;
#X obj 19 61 symbol \$1;
#X msg 19 105 connect \$1 \$2;
#X obj 64 433 outlet;
#X obj 123 433 outlet;
#X obj 182 433 outlet;
#X obj 271 366 route play stop fastrewind;
#X msg 271 386 1;
#X msg 322 386 0;
#X obj 271 433 outlet;
#X obj 350 433 outlet;
#X obj 500 433 outlet;
#X obj 542 433 outlet;
#X obj 584 433 outlet;
#X msg 271 345 \$1;
#X obj 400 433 outlet;
#X obj 450 433 outlet;
#X obj 271 324 unpack s f s f f f;
#X msg 188 63 send /iannix/stop;
#X msg 316 63 send /iannix/play \$1;
#X msg 468 63 send /iannix/fastrewind;
#X obj 64 252 oscparse;
#X obj 64 280 list trim;
#X obj 271 410 t f;
#X obj 350 409 t b;
#X obj 19 33 t b b;
#X obj 65 206 netsend -u -b;
#X obj 65 168 list prepend send;
#X obj 65 187 list trim;
#X obj 316 118 t a;
#X obj 316 140 route send;
#X obj 316 162 t a a;
#X obj 409 186 symbol;
#X msg 409 208 set \$1;
#X obj 316 227 oscformat;
#X obj 316 184 list split 1;
#X obj 316 206 t a;
#X obj 64 233 netreceive -u -b \$3;
#X obj 64 300 route trigger cursor curve transport;
#X connect 0 0 35 0;
#X connect 1 0 2 0;
#X connect 2 0 24 0;
#X connect 2 1 25 0;
#X connect 3 0 26 0;
#X connect 4 0 31 0;
#X connect 5 0 8 0;
#X connect 6 0 5 1;
#X connect 7 0 5 0;
#X connect 8 0 32 0;
#X connect 12 0 13 0;
#X connect 12 1 14 0;
#X connect 12 2 30 0;
#X connect 13 0 29 0;
#X connect 14 0 29 0;
#X connect 20 0 12 0;
#X connect 23 0 20 0;
#X connect 23 1 21 0;
#X connect 23 2 22 0;
#X connect 23 3 17 0;
#X connect 23 4 18 0;
#X connect 23 5 19 0;
#X connect 24 0 35 0;
#X connect 25 0 35 0;
#X connect 26 0 35 0;
#X connect 27 0 28 0;
#X connect 28 0 44 0;
#X connect 29 0 15 0;
#X connect 30 0 16 0;
#X connect 31 0 7 0;
#X connect 31 1 6 0;
#X connect 33 0 34 0;
#X connect 34 0 32 0;
#X connect 35 0 36 0;
#X connect 36 0 37 0;
#X connect 37 0 41 0;
#X connect 37 1 38 0;
#X connect 38 0 39 0;
#X connect 39 0 42 0;
#X connect 40 0 33 0;
#X connect 41 1 42 0;
#X connect 42 0 40 0;
#X connect 43 0 27 0;
#X connect 44 0 9 0;
#X connect 44 1 10 0;
#X connect 44 2 11 0;
#X connect 44 3 23 0;
