#N canvas 295 116 840 599 10;
#X obj 95 14 inlet;
#X obj 188 14 inlet;
#X obj 188 38 route 0;
#X obj 468 14 inlet;
#X obj 19 6 loadbang;
#X obj 19 82 pack s f;
#X obj 89 61 f \$2;
#X obj 19 61 symbol \$1;
#X msg 19 105 connect \$1 \$2;
#X obj 301 376 route play stop fastrewind;
#X msg 301 396 1;
#X msg 352 396 0;
#X msg 301 355 \$1;
#X obj 301 334 unpack s f s f f f;
#X msg 188 63 send /iannix/stop;
#X msg 316 63 send /iannix/play \$1;
#X msg 468 63 send /iannix/fastrewind;
#X obj 64 252 oscparse;
#X obj 64 280 list trim;
#X obj 301 420 t f;
#X obj 330 489 t b;
#X obj 19 33 t b b;
#X obj 65 206 netsend -u -b;
#X obj 65 168 list prepend send;
#X obj 65 187 list trim;
#X obj 316 118 t a;
#X obj 316 140 route send;
#X obj 316 162 t a a;
#X obj 409 186 symbol;
#X msg 409 208 set \$1;
#X obj 316 227 oscformat;
#X obj 316 184 list split 1;
#X obj 316 206 t a;
#X obj 64 233 netreceive -u -b \$3;
#X obj 64 300 route trigger cursor curve transport;
#X obj 64 453 outlet triggers;
#X obj 126 433 outlet cursors;
#X obj 188 413 outlet curves;
#X obj 301 463 outlet play_state;
#X obj 330 513 outlet score_rewound;
#X obj 480 463 outlet score:timecode;
#X obj 530 443 outlet num.triggers;
#X obj 572 423 outlet num.cursors;
#X obj 614 403 outlet num.curves;
#X obj 450 483 outlet score.time;
#X connect 0 0 25 0;
#X connect 1 0 2 0;
#X connect 2 0 14 0;
#X connect 2 1 15 0;
#X connect 3 0 16 0;
#X connect 4 0 21 0;
#X connect 5 0 8 0;
#X connect 6 0 5 1;
#X connect 7 0 5 0;
#X connect 8 0 22 0;
#X connect 9 0 10 0;
#X connect 9 1 11 0;
#X connect 9 2 20 0;
#X connect 10 0 19 0;
#X connect 11 0 19 0;
#X connect 12 0 9 0;
#X connect 13 0 12 0;
#X connect 13 1 44 0;
#X connect 13 2 40 0;
#X connect 13 3 41 0;
#X connect 13 4 42 0;
#X connect 13 5 43 0;
#X connect 14 0 25 0;
#X connect 15 0 25 0;
#X connect 16 0 25 0;
#X connect 17 0 18 0;
#X connect 18 0 34 0;
#X connect 19 0 38 0;
#X connect 20 0 39 0;
#X connect 21 0 7 0;
#X connect 21 1 6 0;
#X connect 23 0 24 0;
#X connect 24 0 22 0;
#X connect 25 0 26 0;
#X connect 26 0 27 0;
#X connect 27 0 31 0;
#X connect 27 1 28 0;
#X connect 28 0 29 0;
#X connect 29 0 32 0;
#X connect 30 0 23 0;
#X connect 31 1 32 0;
#X connect 32 0 30 0;
#X connect 33 0 17 0;
#X connect 34 0 35 0;
#X connect 34 1 36 0;
#X connect 34 2 37 0;
#X connect 34 3 13 0;
