#N canvas 328 222 437 427 10;
#X obj 6 6 inlet;
#X obj 18 372 outlet;
#X obj 35 392 outlet;
#X obj 52 311 outlet;
#X obj 69 331 outlet;
#X obj 86 351 outlet;
#X obj 103 311 outlet;
#X obj 120 331 outlet;
#X obj 137 351 outlet;
#X obj 154 372 outlet;
#X obj 171 392 outlet;
#X obj 221 392 outlet;
#X obj 108 55 route 0;
#X obj 108 32 f \$1;
#X obj 177 6 loadbang;
#X msg 108 77 2;
#X msg 147 77 1;
#X obj 125 144 gate 2;
#X obj 125 164 route \$1;
#X obj 108 6 inlet;
#X msg 125 186 1;
#X msg 170 187 0;
#X obj 144 225 && 1;
#X obj 144 245 sel 1;
#X obj 18 262 l;
#X obj 6 35 t l l;
#X obj 18 288 unpack f s f f f f f f f s;
#X obj 208 52 unpack f s;
#X text 272 184 TODO : filter by Group ID;
#X connect 0 0 25 0;
#X connect 12 0 15 0;
#X connect 12 1 16 0;
#X connect 13 0 12 0;
#X connect 14 0 13 0;
#X connect 15 0 17 0;
#X connect 16 0 17 0;
#X connect 17 0 18 0;
#X connect 17 1 20 0;
#X connect 18 0 20 0;
#X connect 18 1 21 0;
#X connect 19 0 13 0;
#X connect 19 0 18 1;
#X connect 20 0 22 0;
#X connect 21 0 22 0;
#X connect 22 0 23 0;
#X connect 23 0 24 0;
#X connect 24 0 11 0;
#X connect 24 0 26 0;
#X connect 25 0 27 0;
#X connect 25 1 24 1;
#X connect 26 0 1 0;
#X connect 26 1 2 0;
#X connect 26 2 3 0;
#X connect 26 3 4 0;
#X connect 26 4 5 0;
#X connect 26 5 6 0;
#X connect 26 6 7 0;
#X connect 26 7 8 0;
#X connect 26 8 9 0;
#X connect 26 9 10 0;
#X connect 27 0 17 1;
