#N canvas 817 92 539 470 10;
#X obj 6 -35 inlet;
#X obj 33 141 outlet;
#X obj 50 161 outlet;
#X obj 67 80 outlet;
#X obj 84 100 outlet;
#X obj 101 120 outlet;
#X obj 118 80 outlet;
#X obj 135 100 outlet;
#X obj 152 120 outlet;
#X obj 169 141 outlet;
#X obj 186 161 outlet;
#X obj 236 161 outlet;
#X obj 6 24 t l l;
#X obj 33 57 unpack f s f f f f f f f s;
#X text 155 -33 TODO : filters;
#X connect 0 0 12 0;
#X connect 12 0 11 0;
#X connect 12 1 13 0;
#X connect 13 0 1 0;
#X connect 13 1 2 0;
#X connect 13 2 3 0;
#X connect 13 3 4 0;
#X connect 13 4 5 0;
#X connect 13 5 6 0;
#X connect 13 6 7 0;
#X connect 13 7 8 0;
#X connect 13 8 9 0;
#X connect 13 9 10 0;
