#N canvas 311 149 921 483 10;
#X declare -lib mrpeach;
#X text 371 59 arguments : <IP where IanniX runs> <OSC port in of IanniX>
<OSC port out of IanniX>;
#X obj 273 34 tgl 15 0 empty empty empty 17 7 0 10 -262144 -1 -1 0
1;
#X obj 353 33 bng 15 250 50 0 empty empty empty 17 7 0 10 -262144 -1
-1;
#X text 373 33 Fastrewind;
#X text 192 34 Play / pause;
#X obj 247 241 tgl 15 0 empty empty empty 17 7 0 10 -262144 -1 -1 0
1;
#X obj 264 210 bng 15 250 50 0 empty empty empty 17 7 0 10 -262144
-1 -1;
#X text 283 209 Score rewinded;
#X text 262 240 Score played / paused;
#X msg 246 9 set \$1;
#X floatatom 317 93 5 0 0 0 - - -;
#X floatatom 335 93 5 0 0 0 - - -;
#X floatatom 353 93 5 0 0 0 - - -;
#X text 390 92 Number of triggers / cursors / curves;
#X text 34 9 Set IanniX score speed;
#X floatatom 37 27 5 0 0 0 - - -;
#X msg 37 47 /iannix/speed \$1;
#X text 509 314 - no argument : outputs all objects (no filtering)
;
#X text 509 327 - one argument : only outputs object with desired ID
(use 0 to disable ID filtering);
#X text 428 297 Inlet #2 : desired ID (see arguments);
#X text 25 293 Triggers fired;
#X obj 229 313 iannix_object;
#X text 131 293 Cursors coords;
#X text 234 292 Curves intersections;
#X text 428 357 Outlets : (1) unique ID \, (2) group ID \,;
#X text 488 369 (3-4-5) mapped X coord \, Y coord \, Z coord \,;
#X text 488 381 (6-7-8) absolute X coord \, Y coord \, Z coord \,;
#X text 488 394 (9-10) (triggers only) curve Unique ID \, curve group
ID \,;
#X text 488 407 (11) packed data as a list;
#X obj 9 313 iannix_object;
#X obj 412 327 iannix_object;
#X obj 118 315 iannix_object;
#X obj 118 334 send cursors;
#X obj 229 331 send curves;
#X obj 9 330 send triggers;
#X floatatom 282 161 5 0 0 0 - - -;
#X text 279 178 Transport timecode;
#X msg 321 137 set \$1;
#X msg 321 161 000:05:238;
#N canvas 164 158 696 372 subpatches 0;
#X obj -159 -40 inlet;
#X obj -159 -19 route 0 1 2 3 4 5 6 7 8 9;
#X obj 1 -19 route 10 11 12 13 14 15 16 17 18 19;
#X obj 221 -19 route 20 21 22 23 24 25 26 27 28 29;
#X obj -150 162 route 30 31 32 33 34 35 36 37 38 39;
#X obj 70 162 route 40 41 42 43 44 45 46 47 48 49;
#X obj 290 162 route 50 51 52 53 54 55 56 57 58 59;
#X obj -159 1 subpatch;
#X obj 353 91 subpatch;
#X obj 118 81 subpatch;
#X obj -145 11 subpatch;
#X obj -130 21 subpatch;
#X obj -115 31 subpatch;
#X obj -101 41 subpatch;
#X obj -86 51 subpatch;
#X obj -71 61 subpatch;
#X obj -57 71 subpatch;
#X obj -42 81 subpatch;
#X obj -27 91 subpatch;
#X obj 1 1 subpatch;
#X obj 15 11 subpatch;
#X obj 30 21 subpatch;
#X obj 45 31 subpatch;
#X obj 59 41 subpatch;
#X obj 74 51 subpatch;
#X obj 89 61 subpatch;
#X obj 103 71 subpatch;
#X obj 133 91 subpatch;
#X obj 221 1 subpatch;
#X obj 235 11 subpatch;
#X obj 250 21 subpatch;
#X obj 265 31 subpatch;
#X obj 279 41 subpatch;
#X obj 294 51 subpatch;
#X obj 309 61 subpatch;
#X obj 323 71 subpatch;
#X obj 338 81 subpatch;
#X obj -150 182 subpatch;
#X obj -136 192 subpatch;
#X obj -121 202 subpatch;
#X obj -106 212 subpatch;
#X obj -92 222 subpatch;
#X obj -77 232 subpatch;
#X obj -62 242 subpatch;
#X obj -48 252 subpatch;
#X obj -33 262 subpatch;
#X obj -18 272 subpatch;
#X obj 70 182 subpatch;
#X obj 84 192 subpatch;
#X obj 99 202 subpatch;
#X obj 114 212 subpatch;
#X obj 128 222 subpatch;
#X obj 143 232 subpatch;
#X obj 158 242 subpatch;
#X obj 172 252 subpatch;
#X obj 187 262 subpatch;
#X obj 202 272 subpatch;
#X obj 290 182 subpatch;
#X obj 304 192 subpatch;
#X obj 319 202 subpatch;
#X obj 334 212 subpatch;
#X obj 348 222 subpatch;
#X obj 363 232 subpatch;
#X obj 378 242 subpatch;
#X obj 392 252 subpatch;
#X obj 407 262 subpatch;
#X obj 422 272 subpatch;
#X connect 0 0 1 0;
#X connect 1 0 7 0;
#X connect 1 1 10 0;
#X connect 1 2 11 0;
#X connect 1 3 12 0;
#X connect 1 4 13 0;
#X connect 1 5 14 0;
#X connect 1 6 15 0;
#X connect 1 7 16 0;
#X connect 1 8 17 0;
#X connect 1 9 18 0;
#X connect 1 10 2 0;
#X connect 2 0 19 0;
#X connect 2 1 20 0;
#X connect 2 2 21 0;
#X connect 2 3 22 0;
#X connect 2 4 23 0;
#X connect 2 5 24 0;
#X connect 2 6 25 0;
#X connect 2 7 26 0;
#X connect 2 8 9 0;
#X connect 2 9 27 0;
#X connect 2 10 3 0;
#X connect 3 0 28 0;
#X connect 3 1 29 0;
#X connect 3 2 30 0;
#X connect 3 3 31 0;
#X connect 3 4 32 0;
#X connect 3 5 33 0;
#X connect 3 6 34 0;
#X connect 3 7 35 0;
#X connect 3 8 36 0;
#X connect 3 9 8 0;
#X connect 3 10 4 0;
#X connect 4 0 37 0;
#X connect 4 1 38 0;
#X connect 4 2 39 0;
#X connect 4 3 40 0;
#X connect 4 4 41 0;
#X connect 4 5 42 0;
#X connect 4 6 43 0;
#X connect 4 7 44 0;
#X connect 4 8 45 0;
#X connect 4 9 46 0;
#X connect 4 10 5 0;
#X connect 5 0 47 0;
#X connect 5 1 48 0;
#X connect 5 2 49 0;
#X connect 5 3 50 0;
#X connect 5 4 51 0;
#X connect 5 5 52 0;
#X connect 5 6 53 0;
#X connect 5 7 54 0;
#X connect 5 8 55 0;
#X connect 5 9 56 0;
#X connect 5 10 6 0;
#X connect 6 0 57 0;
#X connect 6 1 58 0;
#X connect 6 2 59 0;
#X connect 6 3 60 0;
#X connect 6 4 61 0;
#X connect 6 5 62 0;
#X connect 6 6 63 0;
#X connect 6 7 64 0;
#X connect 6 8 65 0;
#X connect 6 9 66 0;
#X restore 577 213 pd subpatches;
#X obj 576 163 gemwin;
#X msg 701 142 destroy \, reset;
#X msg 576 142 create \, 1 \, frame 25;
#X obj 577 189 receive cursors;
#X obj 574 26 declare -lib mrpeach;
#X obj 84 383 spigot;
#X obj 84 404 print triggers;
#X floatatom 117 361 1 0 0 0 - - -;
#X text 24 361 Print triggers;
#X obj 193 384 spigot;
#X floatatom 226 362 1 0 0 0 - - -;
#X obj 193 405 print cursors;
#X text 140 361 Print cursors;
#X obj 304 384 spigot;
#X floatatom 337 362 1 0 0 0 - - -;
#X obj 304 405 print curves;
#X text 251 361 Print curves;
#X text 519 143 GEM --->;
#X obj 194 64 iannix 127.0.0.1 1234 57120;
#X connect 1 0 58 1;
#X connect 2 0 58 2;
#X connect 5 0 9 0;
#X connect 9 0 1 0;
#X connect 15 0 16 0;
#X connect 16 0 58 0;
#X connect 21 10 33 0;
#X connect 21 10 53 0;
#X connect 29 10 34 0;
#X connect 29 10 45 0;
#X connect 31 10 32 0;
#X connect 31 10 49 0;
#X connect 37 0 38 0;
#X connect 41 0 40 0;
#X connect 42 0 40 0;
#X connect 43 0 39 0;
#X connect 45 0 46 0;
#X connect 47 0 45 1;
#X connect 49 0 51 0;
#X connect 50 0 49 1;
#X connect 53 0 55 0;
#X connect 54 0 53 1;
#X connect 58 0 29 0;
#X connect 58 1 31 0;
#X connect 58 2 21 0;
#X connect 58 3 5 0;
#X connect 58 4 6 0;
#X connect 58 5 35 0;
#X connect 58 6 37 0;
#X connect 58 7 10 0;
#X connect 58 8 11 0;
#X connect 58 9 12 0;
