#N canvas 431 110 1000 454 10;
#X obj 183 64 iannix 127.0.0.1 1234 57120;
#X text 360 59 arguments : <IP where IanniX runs> <OSC port in of IanniX>
<OSC port out of IanniX>;
#X obj 262 34 tgl 15 0 empty empty empty 17 7 0 10 -262144 -1 -1 0
1;
#X obj 342 34 bng 15 250 50 0 empty empty empty 17 7 0 10 -262144 -1
-1;
#X text 362 33 Fastrewind;
#X text 186 33 Play / pause;
#X obj 251 141 tgl 15 0 empty empty empty 17 7 0 10 -262144 -1 -1 0
1;
#X obj 273 118 bng 15 250 50 0 empty empty empty 17 7 0 10 -262144
-1 -1;
#X text 292 117 Score rewinded;
#X text 268 140 Score played / paused;
#X msg 262 9 set \$1;
#X floatatom 296 93 5 0 0 0 - - -;
#X floatatom 319 93 5 0 0 0 - - -;
#X floatatom 342 93 5 0 0 0 - - -;
#X text 379 92 Number of triggers / cursors / curves;
#X text 2 50 Set IanniX score speed;
#X floatatom 5 68 5 0 0 0 - - -;
#X msg 5 88 /iannix/speed \$1;
#X text 649 155 - no argument : outputs all objects (no filtering)
;
#X text 649 168 - one argument : only outputs object with desired ID
(use 0 to disable ID filtering);
#X text 568 138 Inlet #2 : desired ID (see arguments);
#X text 42 177 Triggers fired;
#X obj 243 193 iannix_object;
#X text 145 177 Cursors coords;
#X text 247 177 Curves intersections;
#X text 568 198 Outlets : (1) unique ID \, (2) group ID \,;
#X text 628 210 (3-4-5) mapped X coord \, Y coord \, Z coord \,;
#X text 628 222 (6-7-8) absolute X coord \, Y coord \, Z coord \,;
#X text 628 235 (9-10) (triggers only) curve Unique ID \, curve group
ID \,;
#X text 628 248 (11) packed data as a list;
#X obj 23 193 iannix_object;
#X obj 552 168 iannix_object;
#X obj 133 193 iannix_object;
#X obj 553 365 gemwin;
#X msg 678 344 destroy \, reset;
#X msg 553 344 create \, 1 \, frame 25;
#X obj 553 323 loadbang;
#X text 610 323 Create a GEM window;
#X obj 208 218 send cursors;
#X obj 318 218 send curves;
#X obj 98 218 send triggers;
#X obj 166 341 subpatch 2;
#X connect 0 3 6 0;
#X connect 0 4 7 0;
#X connect 0 5 11 0;
#X connect 0 6 12 0;
#X connect 0 7 13 0;
#X connect 2 0 0 1;
#X connect 3 0 0 2;
#X connect 6 0 10 0;
#X connect 10 0 2 0;
#X connect 16 0 17 0;
#X connect 17 0 0 0;
#X connect 22 10 39 0;
#X connect 30 10 40 0;
#X connect 32 10 38 0;
#X connect 34 0 33 0;
#X connect 35 0 33 0;
#X connect 36 0 35 0;
