#N canvas 265 230 1011 483 10;
#X obj 287 34 tgl 15 0 empty empty play/pause 17 7 0 10 -262144 -1
-1 0 1;
#X obj 380 33 bng 15 250 50 0 empty empty fast.rewind 17 7 0 10 -262144
-1 -1;
#X obj 247 241 tgl 15 0 empty empty empty 17 7 0 10 -262144 -1 -1 0
1;
#X obj 264 210 bng 15 250 50 0 empty empty empty 17 7 0 10 -262144
-1 -1;
#X text 283 209 Score rewinded;
#X text 262 240 Score played / paused;
#X msg 247 9 set \$1;
#X floatatom 317 113 5 0 0 0 - - -, f 5;
#X floatatom 335 113 5 0 0 0 - - -, f 5;
#X floatatom 353 113 5 0 0 0 - - -, f 5;
#X text 390 112 Number of triggers / cursors / curves;
#X floatatom 37 27 5 0 0 2 score.speed - -, f 5;
#X text 6 325 Triggers fired;
#X text 128 326 Cursors coords;
#X text 244 319 Curves intersections;
#X floatatom 282 165 5 0 0 0 - - -, f 5;
#X text 279 182 Transport timecode;
#X msg 321 141 set \$1;
#X obj 576 163 gemwin;
#X msg 721 142 destroy \, reset;
#X msg 576 142 create \, 1 \, frame 25;
#X obj 577 189 receive cursors;
#X obj 249 404 spigot;
#X text 519 143 GEM --->;
#X msg 37 47 send /iannix/speed \$1;
#X text 576 400 see also:;
#X text 391 59 arguments : <IP where IanniX runs> <OSC port in of IanniX>
<OSC port out of IanniX>, f 84;
#X obj 194 64 iannix 127.0.0.1 1234 57120;
#X obj 299 404 tgl 15 0 empty empty empty 17 7 0 10 -228856 -1 -1 1
1;
#X obj 249 361 t a a;
#X obj 249 382 send curves;
#X obj 249 424 print curves;
#X obj 357 344 hradio 15 1 0 8 empty empty empty 0 -8 0 10 -262144
-1 -1 0;
#X msg 357 368 bang;
#X msg 321 165 00:00:03:735;
#N canvas 6 49 645 333 triggers 0;
#X obj 359 247 spigot;
#X obj 239 173 iannix_object;
#X obj 190 100 tgl 15 0 \$0-triggers \$0-triggers empty 17 7 0 10 -228856
-1 -1 0 1;
#X obj 239 143 inlet;
#X obj 327 199 t a a;
#X floatatom 103 122 5 -1 60 1 filter - -, f 5;
#X obj 305 112 select -1;
#X obj 305 46 int;
#X obj 305 68 t f f;
#X msg 337 90 set \$1;
#X obj 327 225 send triggers;
#X obj 359 267 print triggers;
#X obj 428 224 r \$0-triggers;
#X connect 0 0 11 0;
#X connect 1 10 4 0;
#X connect 3 0 1 0;
#X connect 4 0 10 0;
#X connect 4 1 0 0;
#X connect 5 0 7 0;
#X connect 6 0 1 1;
#X connect 6 1 1 1;
#X connect 7 0 8 0;
#X connect 8 0 6 0;
#X connect 8 1 9 0;
#X connect 9 0 5 0;
#X connect 12 0 0 1;
#X coords 0 -1 1 1 105 40 1 100 100;
#X restore 5 343 pd triggers;
#N canvas 5 50 645 333 cursors 0;
#X obj 359 247 spigot;
#X obj 190 100 tgl 15 0 \$0-cursors \$0-cursors empty 17 7 0 10 -228856
-1 -1 0 1;
#X obj 239 143 inlet;
#X obj 327 199 t a a;
#X floatatom 103 122 5 -1 60 1 filter - -, f 5;
#X obj 305 112 select -1;
#X obj 305 46 int;
#X obj 305 68 t f f;
#X msg 337 90 set \$1;
#X obj 327 225 send cursors;
#X obj 359 267 print cursors;
#X obj 428 224 r \$0-cursors;
#X obj 239 173 iannix_object;
#X connect 0 0 10 0;
#X connect 2 0 12 0;
#X connect 3 0 9 0;
#X connect 3 1 0 0;
#X connect 4 0 6 0;
#X connect 5 0 12 1;
#X connect 5 1 12 1;
#X connect 6 0 7 0;
#X connect 7 0 5 0;
#X connect 7 1 8 0;
#X connect 8 0 4 0;
#X connect 11 0 0 1;
#X connect 12 10 3 0;
#X coords 0 -1 1 1 105 40 1 100 100;
#X restore 129 343 pd cursors;
#X obj 577 212 clone 99 subpatch;
#X obj 647 400 iannix_object;
#X obj 249 341 iannix_object;
#X obj 648 428 iannix, f 13;
#X connect 0 0 27 1;
#X connect 1 0 27 2;
#X connect 2 0 6 0;
#X connect 6 0 0 0;
#X connect 11 0 24 0;
#X connect 17 0 34 0;
#X connect 19 0 18 0;
#X connect 20 0 18 0;
#X connect 21 0 37 0;
#X connect 22 0 31 0;
#X connect 24 0 27 0;
#X connect 27 0 35 0;
#X connect 27 1 36 0;
#X connect 27 2 39 0;
#X connect 27 3 2 0;
#X connect 27 4 3 0;
#X connect 27 5 15 0;
#X connect 27 6 17 0;
#X connect 27 7 7 0;
#X connect 27 8 8 0;
#X connect 27 9 9 0;
#X connect 28 0 22 1;
#X connect 29 0 30 0;
#X connect 29 1 22 0;
#X connect 32 0 39 1;
#X connect 33 0 39 1;
#X connect 39 10 29 0;
