#N canvas 810 49 420 318 10;
#X obj 30 54 inlet;
#X obj 24 101 gemhead;
#X obj 24 223 cube;
#X msg 108 206 draw line;
#X obj 108 166 loadbang;
#X obj 108 187 bng 15 250 50 0 empty empty empty 17 7 0 10 -262144
-1 -1;
#X msg 178 206 0.03;
#X obj 24 143 translateXYZ -0.5 -0.5 0;
#X obj 24 123 scaleXYZ 6 6 6;
#X obj 24 201 translateXYZ;
#X obj 12 179 unpack f f;
#X obj 168 166 r reset;
#X msg 218 206 -5 -5;
#X obj 30 77 unpack s f f f f f f f s;
#X connect 0 0 13 0;
#X connect 1 0 8 0;
#X connect 3 0 2 0;
#X connect 4 0 5 0;
#X connect 5 0 3 0;
#X connect 5 0 6 0;
#X connect 5 0 12 0;
#X connect 6 0 2 1;
#X connect 7 0 9 0;
#X connect 8 0 7 0;
#X connect 9 0 2 0;
#X connect 10 0 9 1;
#X connect 10 1 9 2;
#X connect 11 0 5 0;
#X connect 12 0 10 0;
#X connect 13 1 9 1;
#X connect 13 2 9 2;
