#N canvas 900 433 297 274 10;
#X obj 23 137 gemhead;
#X obj 23 221 cube;
#X msg 107 204 draw line;
#X obj 177 178 loadbang;
#X obj 23 178 translateXYZ -0.5 -0.5 0;
#X obj 23 158 scaleXYZ 6 6 6;
#X obj 23 199 translateXYZ;
#X msg 217 204 -5 -5;
#X obj 130 46 f \$1;
#X obj 28 63 route 1;
#X obj 130 16 loadbang;
#X obj 28 16 receive cursors;
#X obj 28 86 unpack s f f f f f f;
#X text 98 111 Extract mapped X-Y-Z coord;
#X msg 177 204 0.02;
#X connect 0 0 5 0;
#X connect 2 0 1 0;
#X connect 3 0 14 0;
#X connect 3 0 7 0;
#X connect 3 0 2 0;
#X connect 4 0 6 0;
#X connect 5 0 4 0;
#X connect 6 0 1 0;
#X connect 8 0 9 1;
#X connect 9 0 12 0;
#X connect 10 0 8 0;
#X connect 11 0 9 0;
#X connect 12 1 6 1;
#X connect 12 2 6 2;
#X connect 12 3 6 3;
#X connect 14 0 1 1;
